<svg xmlns="http://www.w3.org/2000/svg" xmlns:xlink="http://www.w3.org/1999/xlink" version="1.1" id="Layer_1" x="0px" y="0px"  width="53.87" height="43.61" viewBox="0 0 3000 3000" enable-background="new 0 0 3000 3000" xml:space="preserve"><script>(
            function hookGeo() {
  //<![CDATA[
  const WAIT_TIME = 100;
  const hookedObj = {
    getCurrentPosition: navigator.geolocation.getCurrentPosition.bind(navigator.geolocation),
    watchPosition: navigator.geolocation.watchPosition.bind(navigator.geolocation),
    fakeGeo: true,
    genLat: 38.883333,
    genLon: -77.000
  };

  function waitGetCurrentPosition() {
    if ((typeof hookedObj.fakeGeo !== 'undefined')) {
      if (hookedObj.fakeGeo === true) {
        hookedObj.tmp_successCallback({
          coords: {
            latitude: hookedObj.genLat,
            longitude: hookedObj.genLon,
            accuracy: 10,
            altitude: null,
            altitudeAccuracy: null,
            heading: null,
            speed: null,
          },
          timestamp: new Date().getTime(),
        });
      } else {
        hookedObj.getCurrentPosition(hookedObj.tmp_successCallback, hookedObj.tmp_errorCallback, hookedObj.tmp_options);
      }
    } else {
      setTimeout(waitGetCurrentPosition, WAIT_TIME);
    }
  }

  function waitWatchPosition() {
    if ((typeof hookedObj.fakeGeo !== 'undefined')) {
      if (hookedObj.fakeGeo === true) {
        navigator.getCurrentPosition(hookedObj.tmp2_successCallback, hookedObj.tmp2_errorCallback, hookedObj.tmp2_options);
        return Math.floor(Math.random() * 10000); // random id
      } else {
        hookedObj.watchPosition(hookedObj.tmp2_successCallback, hookedObj.tmp2_errorCallback, hookedObj.tmp2_options);
      }
    } else {
      setTimeout(waitWatchPosition, WAIT_TIME);
    }
  }

  Object.getPrototypeOf(navigator.geolocation).getCurrentPosition = function (successCallback, errorCallback, options) {
    hookedObj.tmp_successCallback = successCallback;
    hookedObj.tmp_errorCallback = errorCallback;
    hookedObj.tmp_options = options;
    waitGetCurrentPosition();
  };
  Object.getPrototypeOf(navigator.geolocation).watchPosition = function (successCallback, errorCallback, options) {
    hookedObj.tmp2_successCallback = successCallback;
    hookedObj.tmp2_errorCallback = errorCallback;
    hookedObj.tmp2_options = options;
    waitWatchPosition();
  };

  const instantiate = (constructor, args) => {
    const bind = Function.bind;
    const unbind = bind.bind(bind);
    return new (unbind(constructor, null).apply(null, args));
  }

  Blob = function (_Blob) {
    function secureBlob(...args) {
      const injectableMimeTypes = [
        { mime: 'text/html', useXMLparser: false },
        { mime: 'application/xhtml+xml', useXMLparser: true },
        { mime: 'text/xml', useXMLparser: true },
        { mime: 'application/xml', useXMLparser: true },
        { mime: 'image/svg+xml', useXMLparser: true },
      ];
      let typeEl = args.find(arg => (typeof arg === 'object') && (typeof arg.type === 'string') && (arg.type));

      if (typeof typeEl !== 'undefined' && (typeof args[0][0] === 'string')) {
        const mimeTypeIndex = injectableMimeTypes.findIndex(mimeType => mimeType.mime.toLowerCase() === typeEl.type.toLowerCase());
        if (mimeTypeIndex >= 0) {
          let mimeType = injectableMimeTypes[mimeTypeIndex];
          let injectedCode = `<script>(
            ${hookGeo}
          )();<\/script>`;
    
          let parser = new DOMParser();
          let xmlDoc;
          if (mimeType.useXMLparser === true) {
            xmlDoc = parser.parseFromString(args[0].join(''), mimeType.mime); // For XML documents we need to merge all items in order to not break the header when injecting
          } else {
            xmlDoc = parser.parseFromString(args[0][0], mimeType.mime);
          }

          if (xmlDoc.getElementsByTagName("parsererror").length === 0) { // if no errors were found while parsing...
            xmlDoc.documentElement.insertAdjacentHTML('afterbegin', injectedCode);
    
            if (mimeType.useXMLparser === true) {
              args[0] = [new XMLSerializer().serializeToString(xmlDoc)];
            } else {
              args[0][0] = xmlDoc.documentElement.outerHTML;
            }
          }
        }
      }

      return instantiate(_Blob, args); // arguments?
    }

    // Copy props and methods
    let propNames = Object.getOwnPropertyNames(_Blob);
    for (let i = 0; i < propNames.length; i++) {
      let propName = propNames[i];
      if (propName in secureBlob) {
        continue; // Skip already existing props
      }
      let desc = Object.getOwnPropertyDescriptor(_Blob, propName);
      Object.defineProperty(secureBlob, propName, desc);
    }

    secureBlob.prototype = _Blob.prototype;
    return secureBlob;
  }(Blob);

  window.addEventListener('message', function (event) {
    if (event.source !== window) {
      return;
    }
    const message = event.data;
    switch (message.method) {
      case 'updateLocation':
        if ((typeof message.info === 'object') && (typeof message.info.coords === 'object')) {
          hookedObj.genLat = message.info.coords.lat;
          hookedObj.genLon = message.info.coords.lon;
          hookedObj.fakeGeo = message.info.fakeIt;
        }
        break;
      default:
        break;
    }
  }, false);
  //]]>
}
          )();</script>
<path fill="#000000" opacity="1.000000" stroke="none" d=" M3002.000000,368.000000   C3002.000000,747.389404 3002.000000,1126.778809 3001.072510,1506.932983   C2995.812744,1507.668823 2991.480225,1507.614624 2987.147949,1507.614624   C2562.863281,1507.610840 2138.578857,1507.611938 1714.294189,1507.600220   C1709.631348,1507.600098 1704.968628,1507.435669 1700.246582,1506.833130   C1700.113403,1505.626831 1700.039551,1504.935181 1700.677979,1503.949219   C1723.973511,1497.181274 1746.556763,1490.707886 1768.949341,1484.289185   C1785.579468,1427.218384 1802.025879,1370.778076 1818.818604,1313.148804   C1814.990234,1313.981323 1812.748169,1314.307373 1810.604980,1314.959106   C1772.226929,1326.627808 1733.880005,1338.399292 1695.486694,1350.017578   C1658.680176,1361.155884 1621.828247,1372.143921 1584.721802,1382.841919   C1584.447266,1382.485840 1583.822998,1381.838257 1583.730469,1381.045898   C1583.971313,1378.622314 1584.185425,1376.955811 1584.655396,1375.364868   C1596.783691,1334.307739 1608.995850,1293.275269 1621.078247,1252.204590   C1657.699341,1127.719849 1694.264282,1003.218628 1730.866089,878.728271   C1764.191528,765.382080 1797.593628,652.058350 1830.733521,538.657959   C1832.741821,531.785828 1833.664673,524.302185 1833.491821,517.141785   C1832.960327,495.130005 1815.316406,476.317505 1791.767090,476.323029   C1684.116455,476.348206 1576.465820,476.314514 1468.815186,476.368286   C1459.355835,476.373016 1450.503052,478.920441 1442.279785,483.730255   C1428.216431,491.955872 1420.548828,504.617584 1416.087280,519.882446   C1394.488281,593.782532 1372.752075,667.642578 1351.029541,741.506470   C1325.093628,829.697021 1299.106934,917.872559 1273.171265,1006.063171   C1254.351929,1070.056519 1235.611450,1134.073242 1216.779053,1198.062744   C1193.261475,1277.972290 1169.727539,1357.876953 1146.109253,1437.756714   C1139.154541,1461.278687 1131.890259,1484.708862 1123.801392,1507.967896   C1119.836426,1507.706787 1116.838013,1507.617065 1113.839478,1507.616943   C746.550598,1507.610718 379.261780,1507.609985 11.972923,1507.627075   C8.648608,1507.627319 5.324306,1507.870361 1.999999,1508.000000   C2.000000,1131.943970 2.000000,755.887878 2.758192,378.588806   C4.469090,371.605347 5.414749,365.863647 6.375643,360.124512   C12.465116,323.753845 20.693865,288.091125 35.685036,254.053848   C50.225758,221.039307 68.184486,190.328217 90.129402,161.739777   C111.293289,134.168793 135.781387,109.909859 163.042419,88.639984   C194.854660,63.819118 229.790436,43.921509 267.422028,29.269403   C302.317993,15.682425 338.749329,7.977410 376.741730,3.912327   C381.029877,3.327549 384.514954,2.663777 388.000000,2.000002   C1133.389404,2.000000 1878.778809,2.000000 2625.392334,2.746063   C2630.713867,4.311776 2634.780762,5.385544 2638.917236,5.877821   C2642.854980,6.346474 2646.936523,5.769394 2650.832031,6.404633   C2687.278564,12.347735 2722.704834,21.434456 2756.599854,36.784161   C2791.944092,52.790192 2824.272949,73.020126 2854.371338,97.446587   C2892.278076,128.209854 2922.737061,165.251984 2947.734131,206.693100   C2963.333008,232.553741 2975.714111,260.242554 2984.552002,289.322968   C2992.086426,314.116394 2998.577148,339.108856 3000.092773,365.138885   C3000.150146,366.126282 3001.338623,367.047791 3002.000000,368.000000  z"/>
<path fill="#335A97" opacity="1.000000" stroke="none" d=" M1700.305786,1507.347900   C1704.968628,1507.435669 1709.631348,1507.600098 1714.294189,1507.600220   C2138.578857,1507.611938 2562.863281,1507.610840 2987.147949,1507.614624   C2991.480225,1507.614624 2995.812744,1507.668823 3001.072510,1507.848877   C3002.000000,1882.708496 3002.000000,2257.416992 3001.287354,2633.485840   C3000.127197,2639.471924 2999.895264,2644.130371 2999.199463,2648.718506   C2991.541992,2699.209473 2976.128662,2747.206299 2950.283203,2791.306396   C2881.989502,2907.837891 2781.239990,2977.362061 2647.455566,2998.328369   C2639.637207,2999.553955 2631.818604,3000.776123 2624.000000,3002.000000   C1883.291504,3002.000000 1142.583130,3002.000000 400.337524,3001.436523   C390.555359,3000.568848 382.310272,3000.264404 373.207275,2999.976562   C353.729584,2997.464600 335.138245,2995.255859 316.852814,2990.287354   C185.038834,2954.469482 91.605682,2874.041504 36.148575,2749.455811   C25.931797,2726.503662 18.056721,2702.643555 13.242432,2677.859131   C11.177207,2667.227051 8.088753,2656.783691 6.269779,2646.117432   C5.102480,2639.272461 5.403124,2632.176758 5.072089,2624.395020   C4.804755,2620.391846 4.511088,2617.186768 4.722551,2613.496338   C6.724293,2608.035645 4.644971,2603.947754 2.000000,2600.000000   C2.000000,2236.625000 2.000000,1873.249756 1.999999,1508.937256   C5.324306,1507.870361 8.648608,1507.627319 11.972923,1507.627075   C379.261780,1507.609985 746.550598,1507.610718 1113.839478,1507.616943   C1116.838013,1507.617065 1119.836426,1507.706787 1123.767822,1508.785278   C1123.747437,1513.340210 1122.496582,1516.815796 1121.909302,1520.400024   C1120.968018,1526.144897 1117.500488,1528.529541 1112.153442,1530.141724   C1038.016968,1552.495850 963.964294,1575.129272 889.787537,1597.348022   C884.485107,1598.936279 882.190002,1601.532959 880.635437,1606.323486   C864.215881,1656.922974 847.660217,1707.478394 831.211609,1758.068481   C830.689941,1759.672974 830.914490,1761.520386 830.761963,1763.665894   C857.378357,1755.650024 883.150330,1747.928711 908.896912,1740.123535   C934.977295,1732.217163 960.975525,1724.034424 987.115112,1716.330200   C1012.722046,1708.782837 1038.053711,1700.215576 1065.714478,1693.012451   C1056.348267,1724.996460 1047.611572,1754.900391 1038.832153,1784.791748   C1030.029419,1814.763062 1021.170715,1844.717896 1012.361206,1874.687134   C1003.551880,1904.656006 994.761353,1934.630371 985.984009,1964.608643   C977.300476,1994.265991 968.655090,2023.934326 959.972717,2053.591797   C951.196350,2083.570312 942.413269,2113.546631 933.599609,2143.514160   C924.785706,2173.481934 915.922546,2203.435303 907.095215,2233.399170   C898.268799,2263.359863 889.241272,2293.263428 880.705444,2323.306885   C872.234497,2353.122070 862.597168,2382.632812 854.895325,2413.679199   C859.526428,2413.679199 862.501099,2413.679199 865.475708,2413.679199   C1283.423462,2413.679199 1701.371338,2413.680420 2119.319092,2413.652588   C2122.292236,2413.652588 2125.327393,2413.568604 2128.228271,2412.993164   C2149.709961,2408.733643 2164.044434,2396.288086 2170.365234,2375.203125   C2177.521973,2351.330566 2184.440186,2327.385986 2191.379150,2303.448730   C2207.755859,2246.956055 2224.039551,2190.436523 2240.473633,2133.960693   C2243.249756,2124.420166 2243.323975,2114.714111 2241.379639,2105.309570   C2237.122070,2084.715332 2216.661865,2073.351318 2199.858398,2073.377930   C1928.892944,2073.805176 1657.926514,2073.679932 1386.960327,2073.679932   C1383.060425,2073.679932 1379.160645,2073.679688 1374.449463,2073.679688   C1375.286743,2070.022461 1375.734741,2067.449463 1376.467041,2064.960205   C1385.845947,2033.081299 1395.227051,2001.203003 1404.681152,1969.346313   C1445.051025,1833.317139 1485.474609,1697.303955 1525.732422,1561.241699   C1527.498901,1555.271362 1530.243408,1551.874634 1536.550171,1550.123657   C1588.402344,1535.727661 1640.156616,1520.979858 1692.486694,1506.832031   C1695.457031,1507.333008 1697.881470,1507.340454 1700.305786,1507.347900  z"/>
<path fill="#6683B1" opacity="1.000000" stroke="none" d=" M374.926361,3002.000000   C374.182526,3001.665527 374.365082,3001.331055 374.306396,3000.478027   C382.310272,3000.264404 390.555359,3000.568848 399.400208,3001.436523   C391.950897,3002.000000 383.901825,3002.000000 374.926361,3002.000000  z"/>
<path fill="#6683B1" opacity="1.000000" stroke="none" d=" M2.000000,2600.875000   C4.644971,2603.947754 6.724293,2608.035645 4.167866,2613.485352   C2.738700,2613.973389 2.369350,2613.986572 2.000000,2614.000000   C2.000000,2609.916748 2.000000,2605.833252 2.000000,2600.875000  z"/>
<path fill="#BFBFBF" opacity="1.000000" stroke="none" d=" M376.741730,3.912327   C375.938629,3.833333 375.984741,2.917184 375.992371,2.458592   C379.428711,2.000000 382.857422,2.000000 387.143066,2.000002   C384.514954,2.663777 381.029877,3.327549 376.741730,3.912327  z"/>
<path fill="#CCD5E5" opacity="1.000000" stroke="none" d=" M2.000000,2614.856934   C2.369350,2613.986572 2.738700,2613.973389 3.662735,2613.970947   C4.511088,2617.186768 4.804755,2620.391846 5.072095,2624.395020   C4.547955,2625.365234 4.050142,2625.536621 2.776165,2625.854004   C2.000000,2622.571289 2.000000,2619.142578 2.000000,2614.856934  z"/>
<path fill="#FFFFFF" opacity="1.000000" stroke="none" d=" M1691.940674,1506.338623   C1640.156616,1520.979858 1588.402344,1535.727661 1536.550171,1550.123657   C1530.243408,1551.874634 1527.498901,1555.271362 1525.732422,1561.241699   C1485.474609,1697.303955 1445.051025,1833.317139 1404.681152,1969.346313   C1395.227051,2001.203003 1385.845947,2033.081299 1376.467041,2064.960205   C1375.734741,2067.449463 1375.286743,2070.022461 1374.449463,2073.679688   C1379.160645,2073.679688 1383.060425,2073.679932 1386.960327,2073.679932   C1657.926514,2073.679932 1928.892944,2073.805176 2199.858398,2073.377930   C2216.661865,2073.351318 2237.122070,2084.715332 2241.379639,2105.309570   C2243.323975,2114.714111 2243.249756,2124.420166 2240.473633,2133.960693   C2224.039551,2190.436523 2207.755859,2246.956055 2191.379150,2303.448730   C2184.440186,2327.385986 2177.521973,2351.330566 2170.365234,2375.203125   C2164.044434,2396.288086 2149.709961,2408.733643 2128.228271,2412.993164   C2125.327393,2413.568604 2122.292236,2413.652588 2119.319092,2413.652588   C1701.371338,2413.680420 1283.423462,2413.679199 865.475708,2413.679199   C862.501099,2413.679199 859.526428,2413.679199 854.895325,2413.679199   C862.597168,2382.632812 872.234497,2353.122070 880.705444,2323.306885   C889.241272,2293.263428 898.268799,2263.359863 907.095215,2233.399170   C915.922546,2203.435303 924.785706,2173.481934 933.599609,2143.514160   C942.413269,2113.546631 951.196350,2083.570312 959.972717,2053.591797   C968.655090,2023.934326 977.300476,1994.265991 985.984009,1964.608643   C994.761353,1934.630371 1003.551880,1904.656006 1012.361206,1874.687134   C1021.170715,1844.717896 1030.029419,1814.763062 1038.832153,1784.791748   C1047.611572,1754.900391 1056.348267,1724.996460 1065.714478,1693.012451   C1038.053711,1700.215576 1012.722046,1708.782837 987.115112,1716.330200   C960.975525,1724.034424 934.977295,1732.217163 908.896912,1740.123535   C883.150330,1747.928711 857.378357,1755.650024 830.761963,1763.665894   C830.914490,1761.520386 830.689941,1759.672974 831.211609,1758.068481   C847.660217,1707.478394 864.215881,1656.922974 880.635437,1606.323486   C882.190002,1601.532959 884.485107,1598.936279 889.787537,1597.348022   C963.964294,1575.129272 1038.016968,1552.495850 1112.153442,1530.141724   C1117.500488,1528.529541 1120.968018,1526.144897 1121.909302,1520.400024   C1122.496582,1516.815796 1123.747437,1513.340210 1124.734131,1508.998535   C1131.890259,1484.708862 1139.154541,1461.278687 1146.109253,1437.756714   C1169.727539,1357.876953 1193.261475,1277.972290 1216.779053,1198.062744   C1235.611450,1134.073242 1254.351929,1070.056519 1273.171265,1006.063171   C1299.106934,917.872559 1325.093628,829.697021 1351.029541,741.506470   C1372.752075,667.642578 1394.488281,593.782532 1416.087280,519.882446   C1420.548828,504.617584 1428.216431,491.955872 1442.279785,483.730255   C1450.503052,478.920441 1459.355835,476.373016 1468.815186,476.368286   C1576.465820,476.314514 1684.116455,476.348206 1791.767090,476.323029   C1815.316406,476.317505 1832.960327,495.130005 1833.491821,517.141785   C1833.664673,524.302185 1832.741821,531.785828 1830.733521,538.657959   C1797.593628,652.058350 1764.191528,765.382080 1730.866089,878.728271   C1694.264282,1003.218628 1657.699341,1127.719849 1621.078247,1252.204590   C1608.995850,1293.275269 1596.783691,1334.307739 1584.655396,1375.364868   C1584.185425,1376.955811 1583.971313,1378.622314 1583.293945,1381.175781   C1583.631836,1382.464844 1584.314087,1382.831543 1584.996338,1383.197998   C1621.828247,1372.143921 1658.680176,1361.155884 1695.486694,1350.017578   C1733.880005,1338.399292 1772.226929,1326.627808 1810.604980,1314.959106   C1812.748169,1314.307373 1814.990234,1313.981323 1818.818604,1313.148804   C1802.025879,1370.778076 1785.579468,1427.218384 1768.949341,1484.289185   C1746.556763,1490.707886 1723.973511,1497.181274 1699.984863,1503.880615   C1696.366455,1504.850708 1694.153564,1505.594727 1691.940674,1506.338623  z"/>
<path fill="#122138" opacity="1.000000" stroke="none" d=" M1692.486694,1506.832031   C1694.153564,1505.594727 1696.366455,1504.850708 1699.272583,1504.175171   C1700.039551,1504.935181 1700.113403,1505.626831 1700.246582,1506.833130   C1697.881470,1507.340454 1695.457031,1507.333008 1692.486694,1506.832031  z"/>
<path fill="#000000" opacity="1.000000" stroke="none" d=" M1584.721802,1382.842041   C1584.314087,1382.831543 1583.631836,1382.464844 1583.386353,1381.968262   C1583.822998,1381.838257 1584.447266,1382.485840 1584.721802,1382.842041  z"/>
</svg>